<?xml version="1.0" standalone="no"?>
<!DOCTYPE svg PUBLIC "-//W3C//DTD SVG 20010904//EN"
 "http://www.w3.org/TR/2001/REC-SVG-20010904/DTD/svg10.dtd">
<svg version="1.0" xmlns="http://www.w3.org/2000/svg"
 width="260.000000pt" height="260.000000pt" viewBox="0 0 260.000000 260.000000"
 preserveAspectRatio="xMidYMid meet">
<metadata>
Created by potrace 1.11, written by Peter Selinger 2001-2013
</metadata>
<g transform="translate(0.000000,260.000000) scale(0.100000,-0.100000)"
fill="#000000" stroke="none">
<path d="M0 2023 l0 -576 25 23 c14 13 25 27 25 30 0 4 12 34 27 66 26 57 28
65 31 92 1 6 8 12 16 12 9 0 16 19 21 58 12 100 26 145 74 226 48 82 98 142
141 169 14 8 61 21 105 28 48 7 104 24 139 42 57 28 60 28 73 11 7 -10 13 -24
13 -31 0 -7 5 -13 10 -13 6 0 10 9 10 20 0 11 4 20 8 20 5 0 17 15 26 33 13
25 15 41 9 72 -8 37 -11 40 -43 41 -47 1 -82 -30 -74 -65 5 -25 5 -25 -10 -7
-8 10 -23 42 -32 70 -9 28 -24 58 -34 66 -9 9 -23 26 -29 39 -9 16 -19 21 -32
18 -28 -7 -34 15 -22 79 l10 54 -244 0 -243 0 0 -577z m675 208 c-6 -5 -25 10
-25 20 0 5 6 4 14 -3 8 -7 12 -15 11 -17z"/>
<path d="M1714 2585 c19 -14 14 -35 -8 -35 -19 0 -13 -113 8 -146 19 -28 10
-49 -16 -39 -23 9 -38 51 -31 87 5 27 4 30 -12 25 -13 -6 -16 -3 -11 9 5 13 2
15 -14 11 -14 -3 -29 4 -47 24 -27 28 -27 28 -45 9 -22 -24 -44 -26 -52 -5 -9
24 -26 17 -37 -14 -11 -30 -33 -46 -50 -35 -6 3 -7 -5 -4 -19 6 -22 4 -25 -22
-24 -15 1 -34 10 -41 19 -7 9 -19 15 -28 11 -8 -3 -21 3 -29 13 -13 17 -16 17
-25 4 -5 -8 -10 -25 -10 -37 0 -19 -6 -23 -30 -23 -17 0 -39 5 -49 12 -30 18
-52 4 -45 -30 7 -35 1 -39 -61 -51 -39 -7 -50 -6 -65 9 -17 17 -18 17 -36 -4
-10 -11 -21 -39 -24 -61 -4 -34 -8 -40 -28 -37 -34 5 -25 -27 26 -91 12 -16
19 -33 16 -39 -4 -5 0 -21 7 -35 12 -23 10 -31 -19 -83 -33 -61 -38 -75 -23
-65 5 3 12 2 15 -3 5 -9 -8 -126 -19 -157 -3 -11 6 -1 20 23 15 23 31 42 35
42 13 0 40 -48 40 -73 0 -13 -13 -37 -30 -54 -34 -35 -32 -55 14 -137 32 -58
33 -66 2 -29 -31 36 -55 95 -58 140 l-2 35 -44 -6 c-25 -3 -59 -15 -76 -25
-17 -11 -67 -34 -111 -51 -44 -18 -84 -36 -88 -40 -14 -13 11 -49 55 -76 32
-21 42 -23 49 -12 7 10 9 9 9 -4 0 -24 32 -23 55 2 10 11 25 20 34 20 9 0 29
7 45 15 15 8 30 15 32 15 9 0 3 -53 -21 -195 -23 -137 -35 -184 -35 -141 0 9
-4 15 -9 12 -11 -7 -2 -46 10 -46 5 0 9 -4 9 -10 0 -5 -5 -9 -11 -7 -7 1 -16
-13 -21 -30 -8 -31 -11 -32 -51 -30 -45 2 -61 12 -71 42 -3 11 -17 32 -30 46
-17 18 -23 34 -19 48 4 17 1 21 -18 21 -33 0 -55 -15 -39 -25 7 -4 16 -2 21 6
4 7 12 10 16 5 4 -5 2 -11 -4 -13 -15 -6 -17 -59 -3 -68 18 -11 10 -25 -15
-25 -29 0 -48 36 -43 79 2 14 -2 31 -8 36 -7 6 -15 20 -19 33 -5 16 -2 22 9
22 27 0 18 28 -21 63 -27 25 -36 42 -35 63 1 27 8 69 12 69 1 0 3 10 4 23 3
27 -2 28 -30 1 -20 -18 -25 -19 -37 -8 -7 8 -16 32 -20 53 -8 47 -10 50 -35
37 -13 -7 -22 -7 -31 2 -9 9 -13 7 -17 -11 -4 -13 -14 -22 -25 -22 -22 0 -36
-29 -70 -138 -15 -52 -26 -72 -35 -68 -10 4 -14 -3 -14 -19 0 -14 -8 -29 -20
-35 -14 -7 -20 -21 -20 -43 l0 -32 -20 25 c-25 32 -29 154 -5 164 13 5 22 56
10 56 -11 0 -45 -35 -45 -46 0 -7 -7 -14 -15 -18 -19 -7 -20 -32 -1 -39 8 -3
15 -28 19 -61 3 -31 13 -70 21 -88 20 -39 20 -36 -6 -40 -18 -2 -23 -9 -21
-31 2 -24 0 -26 -18 -17 -16 9 -19 7 -19 -10 0 -13 -7 -20 -20 -20 -18 0 -20
-7 -20 -58 0 -61 3 -65 75 -86 11 -4 31 -16 45 -27 20 -17 21 -19 5 -14 -38
15 -70 16 -97 6 -27 -10 -28 -13 -28 -81 0 -56 3 -70 15 -70 8 0 15 -4 15 -9
0 -5 -7 -14 -15 -21 -19 -16 -19 -44 0 -60 14 -12 14 -15 -1 -31 -16 -18 -16
-19 19 -19 40 0 50 -14 17 -23 -23 -6 -27 -37 -5 -37 23 0 95 -39 95 -51 0 -6
-7 -6 -21 1 -13 7 -40 9 -70 5 -46 -7 -49 -8 -49 -37 0 -23 3 -28 13 -21 41
33 111 19 156 -31 14 -14 33 -26 43 -26 11 0 32 -7 48 -15 30 -16 30 -16 30
14 0 22 -4 29 -14 25 -10 -4 -17 12 -27 60 -7 36 -16 66 -21 66 -4 0 -7 12 -7
28 2 23 2 24 6 4 7 -34 23 -26 21 11 -1 19 2 39 6 46 5 7 2 10 -6 9 -7 -2 -13
4 -13 12 0 17 63 38 118 39 24 1 40 7 43 16 4 8 12 15 18 15 7 0 31 16 53 35
23 19 44 35 46 35 3 0 9 -20 13 -45 6 -42 25 -75 43 -75 4 0 32 -25 61 -55
l55 -54 55 59 56 60 91 0 90 0 7 41 c7 45 68 197 73 183 2 -5 -8 -39 -23 -74
-24 -61 -47 -177 -61 -312 -3 -32 -10 -55 -14 -52 -5 3 -9 -1 -9 -8 1 -18 46
-68 62 -68 8 0 7 -4 -4 -10 -10 -6 -14 -18 -11 -30 3 -12 -1 -22 -11 -26 -9
-3 -16 -12 -16 -20 0 -8 -10 -14 -25 -14 -18 0 -25 -5 -25 -20 0 -17 7 -20 44
-20 23 0 57 5 74 11 29 10 32 15 43 85 10 65 23 95 33 83 2 -2 -1 -35 -6 -72
-6 -37 -8 -70 -6 -73 3 -2 99 30 214 72 l210 76 0 47 c-1 42 1 46 25 49 19 2
33 -5 53 -29 l27 -31 127 47 c70 25 140 51 155 57 16 6 51 37 78 68 47 54 54
58 104 65 34 4 58 12 64 22 5 10 15 14 25 10 26 -10 71 3 102 30 17 14 22 22
12 19 -11 -3 -18 0 -18 7 0 7 11 14 25 15 16 1 25 -3 25 -13 0 -18 11 -19 45
-3 21 9 25 17 20 35 -4 16 -1 23 10 23 8 0 15 -6 15 -13 0 -8 11 -20 25 -27
14 -7 25 -18 25 -24 0 -6 18 -40 40 -76 36 -58 52 -95 33 -76 -4 3 -17 -21
-29 -55 -23 -63 -35 -174 -21 -196 5 -9 3 -13 -8 -13 -25 0 -27 20 -9 100 30
141 30 165 -4 218 -17 26 -35 59 -41 74 l-10 28 -35 -17 c-29 -14 -35 -20 -30
-40 7 -28 -15 -40 -46 -23 -13 7 -37 9 -56 6 -33 -7 -33 -7 -13 -27 15 -15 24
-17 39 -9 32 17 23 1 -11 -19 l-32 -19 -38 25 c-34 23 -75 29 -71 11 1 -5 2
-17 2 -29 0 -16 4 -19 18 -14 31 14 62 17 62 8 0 -5 -18 -19 -40 -32 l-39 -22
-13 21 c-7 12 -28 28 -47 37 l-34 17 -28 -35 c-15 -19 -24 -35 -20 -37 4 -1
27 6 51 17 49 22 55 21 63 -9 4 -15 -2 -24 -21 -34 l-26 -14 32 -16 c18 -9 32
-21 32 -26 0 -17 -35 -15 -52 2 -10 10 -26 18 -36 18 -24 0 -142 -59 -142 -70
0 -5 7 -16 16 -24 9 -9 13 -24 9 -35 -5 -15 1 -21 26 -26 18 -4 51 -16 73 -26
23 -11 32 -17 21 -13 -43 13 -85 16 -85 6 0 -9 22 -19 65 -28 10 -3 31 -12 45
-21 20 -14 22 -18 9 -21 -10 -2 -19 -12 -22 -23 -3 -11 -19 -24 -36 -30 -31
-11 -41 -34 -18 -42 6 -2 10 -7 7 -10 -3 -4 -28 0 -55 8 -26 8 -55 15 -62 15
-23 0 -11 -44 12 -48 23 -4 65 -40 65 -55 0 -6 -3 -7 -6 -4 -4 3 -16 0 -26 -8
-11 -7 -27 -11 -34 -8 -18 7 -18 -11 0 -26 21 -18 30 -69 16 -86 -11 -13 32
-15 339 -15 l351 0 0 359 c0 310 -2 360 -15 365 -19 7 -19 40 0 56 13 11 15
130 15 916 l0 904 -452 0 c-391 -1 -450 -3 -434 -15z m-270 -130 c-7 -16 -24
-21 -24 -6 0 8 7 13 27 20 1 1 0 -6 -3 -14z m-250 -71 c8 -20 8 -19 -26 -28
-20 -5 -26 -2 -24 10 2 15 23 34 37 34 4 0 10 -7 13 -16z m113 -182 c-5 -65
-15 -82 -50 -82 -29 0 -30 25 -3 65 15 21 26 52 26 70 0 17 3 35 7 39 15 15
25 -30 20 -92z m-266 63 c19 -13 52 -37 74 -52 45 -32 53 -48 27 -62 -12 -6
-32 -2 -67 15 -27 13 -58 23 -67 24 -20 0 -38 29 -38 63 0 45 21 48 71 12z
m-101 -35 c0 -5 -4 -10 -10 -10 -5 0 -10 5 -10 10 0 6 5 10 10 10 6 0 10 -4
10 -10z m130 -150 c8 -16 15 -18 29 -10 25 13 31 4 18 -29 -8 -21 -17 -27 -42
-28 -25 -1 -35 5 -44 23 -6 14 -11 34 -11 44 0 27 36 26 50 0z m197 -36 c2 -7
-10 -14 -27 -16 -20 -3 -30 0 -30 8 0 23 50 30 57 8z m-198 -110 c9 6 71 -49
71 -63 0 -17 -15 -13 -36 10 -17 19 -19 19 -31 3 -17 -24 -39 -4 -47 44 -3 20
-9 48 -12 62 -4 18 2 13 21 -18 14 -23 30 -40 34 -38z m886 -24 c10 -11 24
-20 32 -20 7 0 13 -3 13 -6 0 -9 -28 -34 -38 -34 -14 0 -43 36 -35 44 5 4 -1
14 -11 22 -20 14 -19 14 1 14 11 0 28 -9 38 -20z m-634 -48 c43 -30 12 -72
-52 -72 -40 0 -109 45 -109 72 0 17 7 18 71 16 39 -1 79 -8 90 -16z m-209 -89
c51 -60 192 -183 210 -183 39 0 31 -30 -23 -80 -29 -28 -57 -50 -62 -50 -5 0
-35 -25 -68 -57 -32 -31 -61 -54 -64 -51 -9 9 -33 164 -34 223 0 33 -6 81 -12
108 -13 55 -5 117 16 117 7 0 24 -12 37 -27z m-80 -134 c0 -17 -6 -37 -13 -45
-10 -12 -15 -10 -30 15 -17 29 -17 32 -2 59 15 26 19 28 31 15 8 -8 15 -28 14
-44z m-63 -179 l1 -45 -15 29 c-9 16 -13 37 -9 45 4 9 6 25 6 36 l-2 20 9 -20
c5 -11 10 -40 10 -65z m96 -42 c15 -51 20 -96 10 -86 -3 3 -12 29 -19 59 -8
30 -18 63 -22 73 -5 13 -4 17 4 12 6 -4 18 -30 27 -58z m905 14 c0 -23 -64
-53 -162 -76 -38 -9 -35 -1 10 28 44 28 102 42 102 24 0 -7 7 -2 16 10 15 22
34 30 34 14z m-1022 -64 c3 -94 2 -102 -8 -112 -6 -6 -10 -22 -10 -37 0 -15
-4 -31 -10 -34 -10 -6 -8 33 6 173 8 76 19 81 22 10z m782 -5 c0 -13 -4 -23
-9 -23 -10 0 -21 34 -21 64 0 20 0 20 15 0 8 -10 15 -29 15 -41z m-115 -43
c-3 -5 -11 -10 -16 -10 -6 0 -7 5 -4 10 3 6 11 10 16 10 6 0 7 -4 4 -10z m-25
-65 c-25 -26 -40 -32 -40 -15 0 6 6 10 14 10 7 0 19 7 26 15 7 8 15 15 18 15
3 0 -5 -11 -18 -25z m-40 -89 c0 -45 -13 -74 -36 -79 -31 -6 -32 23 -3 64 22
31 39 38 39 15z m110 2 c-1 -18 -25 -48 -39 -48 -18 0 -13 38 7 49 23 14 32
13 32 -1z m-70 -31 c0 -18 -2 -19 -10 -7 -13 20 -13 43 0 35 6 -3 10 -16 10
-28z m-1432 6 c-10 -2 -28 -2 -40 0 -13 2 -5 4 17 4 22 1 32 -1 23 -4z m1252
-41 c0 -15 -6 -17 -35 -14 -30 4 -35 1 -35 -17 0 -24 -28 -28 -60 -9 -18 11
-14 15 43 34 78 28 87 28 87 6z m-606 -18 c3 -8 2 -12 -4 -9 -6 3 -10 10 -10
16 0 14 7 11 14 -7z m890 -20 c9 -24 7 -28 -9 -14 -17 14 -20 30 -6 30 5 0 12
-7 15 -16z m214 -31 c5 -18 -23 -16 -39 3 -11 14 -10 15 11 12 13 -1 25 -9 28
-15z m-597 -14 l24 -21 -25 6 c-14 3 -28 6 -31 6 -4 0 -9 7 -13 15 -8 22 18
19 45 -6z m415 -37 c-12 -11 -17 7 -9 34 l8 29 3 -28 c2 -16 1 -31 -2 -35z
m-67 -23 c-7 -4 -17 -5 -22 -2 -5 3 -3 9 4 14 7 4 17 5 22 2 5 -3 3 -9 -4 -14z
m218 -75 c-7 -7 -37 7 -37 17 0 6 9 5 21 -1 11 -7 19 -14 16 -16z m-1407 6 c0
-5 -5 -10 -11 -10 -5 0 -7 5 -4 10 3 6 8 10 11 10 2 0 4 -4 4 -10z m1407 -40
c2 0 3 -4 3 -10 0 -13 -36 -13 -61 1 -30 16 -13 29 24 18 17 -5 33 -9 34 -9z
m313 -20 c0 -5 -4 -10 -10 -10 -5 0 -10 5 -10 10 0 6 5 10 10 10 6 0 10 -4 10
-10z m-959 -20 c12 0 -53 -80 -65 -80 -4 0 -5 10 -2 23 4 12 8 27 9 32 5 23
20 36 34 31 8 -3 19 -6 24 -6z m659 -36 c0 -19 -28 -30 -43 -15 -8 8 -6 15 8
25 22 16 35 12 35 -10z m547 -29 c16 -180 16 -185 0 -185 -20 0 -35 47 -42
138 -5 72 -5 73 17 70 14 -2 24 -11 25 -23z m-524 -46 c13 -21 -24 -59 -58
-59 -22 0 -25 4 -25 33 0 19 3 37 7 41 12 12 66 2 76 -15z m413 -48 c17 -33
-1 -71 -32 -71 -13 0 -26 5 -29 10 -3 6 3 10 13 10 20 0 36 25 26 41 -3 5 -12
9 -19 9 -9 0 -12 6 -8 15 8 22 35 14 49 -14z m-1282 -98 c-15 -24 -34 -28 -34
-6 0 26 21 46 34 33 7 -7 7 -16 0 -27z m1346 -23 c0 -22 -25 -27 -50 -10 -13
9 -13 11 0 20 25 17 50 12 50 -10z m-113 -16 c7 -22 -13 -35 -40 -25 -33 13
-35 28 -4 34 28 5 40 3 44 -9z m-117 -43 c0 -27 -10 -31 -45 -16 l-30 13 25
10 c37 16 50 14 50 -7z m90 -41 c0 -5 -5 -10 -11 -10 -5 0 -7 5 -4 10 3 6 8
10 11 10 2 0 4 -4 4 -10z m120 -16 c0 -8 -4 -12 -10 -9 -5 3 -10 13 -10 21 0
8 5 12 10 9 6 -3 10 -13 10 -21z m-170 -4 c-20 -13 -33 -13 -25 0 3 6 14 10
23 10 15 0 15 -2 2 -10z m-70 -25 c-14 -8 -32 -14 -40 -14 -8 0 -1 7 15 14 39
18 57 18 25 0z m140 -7 c0 -13 -23 -5 -28 10 -2 7 2 10 12 6 9 -3 16 -11 16
-16z m108 0 c-3 -7 -11 -13 -18 -13 -7 0 -15 6 -17 13 -3 7 4 12 17 12 13 0
20 -5 18 -12z"/>
<path d="M622 2499 c2 -6 8 -10 13 -10 5 0 11 4 13 10 2 6 -4 11 -13 11 -9 0
-15 -5 -13 -11z"/>
<path d="M840 2288 c0 -9 5 -20 11 -23 17 -11 18 -2 3 19 -12 17 -14 17 -14 4z"/>
<path d="M776 2018 c-9 -12 -16 -32 -16 -44 0 -19 3 -18 37 13 29 28 33 37 22
44 -21 13 -26 11 -43 -13z"/>
<path d="M658 1979 c-8 -5 -6 -12 5 -23 8 -9 18 -16 21 -16 8 0 36 31 36 41 0
10 -45 8 -62 -2z"/>
<path d="M301 1949 c-14 -31 -12 -39 11 -43 7 -1 23 -7 35 -14 28 -15 30 -15
37 4 7 18 -31 77 -45 69 -5 -4 -9 -1 -9 4 0 21 -15 10 -29 -20z"/>
<path d="M544 1955 c-10 -8 -14 -15 -8 -15 5 0 19 7 30 15 10 8 14 15 8 15 -5
0 -19 -7 -30 -15z"/>
<path d="M295 1880 c-3 -6 1 -13 9 -16 25 -9 7 -26 -20 -20 -28 7 -27 8 -13
-32 13 -38 22 -34 49 17 14 29 16 41 7 50 -14 14 -24 14 -32 1z"/>
<path d="M168 1660 c-2 -41 -7 -55 -18 -55 -21 0 -32 -21 -25 -46 11 -33 38
-17 57 32 14 40 15 51 3 85 l-13 39 -4 -55z"/>
<path d="M121 1394 c0 -11 3 -14 6 -6 3 7 2 16 -1 19 -3 4 -6 -2 -5 -13z"/>
<path d="M16 1356 c-10 -17 -16 -45 -15 -83 1 -55 1 -57 13 -30 7 16 17 32 23
35 15 10 21 94 7 99 -6 2 -19 -8 -28 -21z"/>
<path d="M130 1360 c0 -5 5 -10 11 -10 5 0 7 5 4 10 -3 6 -8 10 -11 10 -2 0
-4 -4 -4 -10z"/>
<path d="M2088 733 c7 -3 16 -2 19 1 4 3 -2 6 -13 5 -11 0 -14 -3 -6 -6z"/>
<path d="M1733 531 c-23 -9 -45 -20 -50 -25 -4 -5 -1 -6 7 -3 8 3 32 11 53 18
20 7 37 16 37 21 0 4 -1 8 -2 7 -2 -1 -22 -9 -45 -18z"/>
<path d="M1798 527 c-16 -6 -28 -14 -28 -19 0 -10 1 -10 39 3 17 6 31 15 31
20 0 11 -7 10 -42 -4z"/>
<path d="M836 511 c-5 -13 -4 -27 3 -34 17 -17 24 -1 14 30 l-10 28 -7 -24z"/>
<path d="M1710 490 c-21 -11 -28 -19 -18 -20 22 0 68 21 68 32 0 12 -11 9 -50
-12z"/>
<path d="M1750 473 c-47 -20 -87 -38 -89 -39 -4 -4 19 -65 30 -78 4 -4 31 1
61 12 103 39 108 42 108 78 0 35 -8 64 -19 63 -3 0 -44 -17 -91 -36z"/>
<path d="M747 477 c-11 -29 -9 -43 4 -30 6 6 9 19 7 29 -3 18 -4 18 -11 1z"/>
<path d="M1650 460 c0 -5 5 -10 10 -10 6 0 10 5 10 10 0 6 -4 10 -10 10 -5 0
-10 -4 -10 -10z"/>
<path d="M30 398 l-30 -41 0 -142 c0 -105 4 -152 15 -179 15 -35 16 -36 73
-36 l57 0 1 35 c1 38 -7 43 -26 20 -11 -13 -16 -8 -32 37 -10 29 -21 78 -25
108 -6 47 -8 51 -13 25 -6 -30 -6 -30 -18 -7 -31 54 -16 145 32 200 11 12 14
22 8 22 -7 0 -25 -19 -42 -42z"/>
<path d="M1535 420 c-3 -5 -1 -10 4 -10 6 0 11 5 11 10 0 6 -2 10 -4 10 -3 0
-8 -4 -11 -10z"/>
<path d="M370 411 l-65 -7 48 -13 c26 -7 50 -17 53 -22 2 -4 16 -4 30 1 36 14
97 12 116 -2 9 -7 18 -22 21 -33 4 -16 5 -14 6 6 1 32 -11 43 -64 57 -68 18
-78 19 -145 13z"/>
<path d="M1278 363 c-21 -9 -38 -19 -38 -24 0 -7 86 26 99 37 10 9 -27 1 -61
-13z"/>
<path d="M1360 361 c-8 -5 -44 -19 -79 -31 -35 -11 -82 -29 -105 -40 -22 -10
-63 -26 -91 -36 -27 -9 -54 -21 -60 -26 -5 -4 -15 -8 -21 -8 -26 0 -65 -20
-59 -30 4 -7 11 -7 18 -2 7 5 23 13 36 17 13 4 40 14 60 23 20 9 38 16 41 17
14 3 58 17 75 25 24 10 58 23 65 24 30 7 150 61 150 68 0 10 -11 10 -30 -1z"/>
<path d="M1595 361 c-3 -5 -1 -12 5 -16 5 -3 10 1 10 9 0 18 -6 21 -15 7z"/>
<path d="M1940 362 c0 -10 22 -32 32 -32 5 0 3 9 -4 20 -13 20 -28 27 -28 12z"/>
<path d="M1733 347 c-24 -5 -43 -14 -43 -19 0 -5 -5 -6 -12 -2 -27 17 -56 12
-65 -9 -13 -32 -5 -80 12 -73 28 10 60 -44 35 -59 -22 -14 -51 22 -72 92 -24
76 -34 89 -40 51 -2 -19 -10 -23 -40 -24 -29 -1 -46 -9 -73 -35 -31 -31 -34
-38 -28 -73 4 -28 3 -37 -5 -32 -7 4 -12 14 -12 22 0 16 -13 18 -38 5 -34 -18
-89 -41 -212 -91 -69 -28 -134 -55 -145 -61 -11 -5 -38 -15 -60 -23 -36 -13
14 -15 459 -15 l499 -1 -7 43 c-4 23 -14 52 -22 64 -7 12 -14 33 -14 45 0 21
-4 23 -55 22 -47 0 -58 3 -81 27 -22 23 -25 33 -20 63 7 39 21 47 30 18 15
-45 103 -96 113 -66 2 6 -8 26 -23 44 -21 24 -24 34 -15 40 10 6 9 13 -4 34
-10 14 -18 25 -19 25 0 -1 -20 -6 -43 -12z m-229 -173 c9 -22 -3 -32 -14 -14
-12 19 -12 30 -1 30 5 0 12 -7 15 -16z m-50 -49 c16 -12 17 -18 7 -28 -10 -10
-15 -8 -27 7 -26 36 -15 47 20 21z"/>
<path d="M1140 313 c-36 -14 -79 -32 -97 -39 -17 -8 -36 -14 -42 -14 -17 0
-91 -34 -91 -41 0 -8 220 71 285 101 60 28 20 23 -55 -7z"/>
<path d="M1345 318 c-64 -22 -90 -33 -168 -67 -27 -12 -62 -24 -78 -28 -16 -3
-32 -10 -35 -14 -3 -5 -14 -9 -25 -9 -10 0 -19 -4 -19 -10 0 -5 -6 -10 -14
-10 -8 0 -27 -5 -43 -12 -15 -6 -31 -12 -35 -13 -5 -2 -10 -4 -13 -5 -3 -1 -8
-3 -12 -5 -5 -1 -21 -7 -38 -14 -16 -7 -46 -19 -65 -26 -33 -11 -35 -15 -35
-56 l0 -44 46 -3 c34 -2 65 6 130 33 46 20 112 47 147 60 34 14 77 31 95 38
17 8 67 29 110 48 l79 34 1 58 c1 31 2 57 2 56 0 -1 -13 -6 -30 -11z"/>
<path d="M404 235 c-4 -8 -14 -15 -23 -15 -9 0 -27 -7 -39 -16 -18 -12 -22
-22 -18 -42 3 -15 3 -32 -2 -37 -10 -15 -90 -37 -103 -29 -7 4 -7 -1 1 -16 8
-15 9 -30 1 -51 l-10 -29 148 0 c101 0 151 4 159 12 18 18 14 28 -10 28 l-23
0 25 21 25 20 -30 -6 c-16 -3 -39 -7 -51 -9 -17 -4 -23 3 -33 45 -12 45 -11
68 5 122 6 21 -14 23 -22 2z"/>
<path d="M880 209 c0 -5 5 -7 10 -4 6 3 10 8 10 11 0 2 -4 4 -10 4 -5 0 -10
-5 -10 -11z"/>
<path d="M850 200 c0 -5 5 -10 10 -10 6 0 10 5 10 10 0 6 -4 10 -10 10 -5 0
-10 -4 -10 -10z"/>
<path d="M820 190 c0 -5 5 -10 10 -10 6 0 10 5 10 10 0 6 -4 10 -10 10 -5 0
-10 -4 -10 -10z"/>
<path d="M915 191 c-3 -5 -19 -12 -35 -16 -17 -4 -30 -11 -30 -17 0 -6 7 -7
16 -4 9 3 27 9 40 12 13 3 24 12 24 20 0 16 -6 18 -15 5z"/>
<path d="M106 155 c-6 -17 9 -29 24 -20 14 9 12 22 -4 28 -8 3 -17 -1 -20 -8z"/>
<path d="M791 144 c-18 -8 -31 -17 -28 -20 7 -8 77 18 77 28 0 11 -9 9 -49 -8z"/>
<path d="M725 70 c-3 -5 1 -10 10 -10 9 0 13 5 10 10 -3 6 -8 10 -10 10 -2 0
-7 -4 -10 -10z"/>
<path d="M695 61 c-3 -5 -1 -12 5 -16 5 -3 10 1 10 9 0 18 -6 21 -15 7z"/>
<path d="M730 30 c0 -5 5 -10 10 -10 6 0 10 5 10 10 0 6 -4 10 -10 10 -5 0
-10 -4 -10 -10z"/>
<path d="M698 13 c7 -3 16 -2 19 1 4 3 -2 6 -13 5 -11 0 -14 -3 -6 -6z"/>
</g>
</svg>
